# Blender v2.82 (sub 7) OBJ File: 'Low-poly coin.blend'
# www.blender.org
mtllib Low-poly coin.mtl
o Cylinder
v 0.265850 0.117539 -0.818203
v -0.000000 0.117539 -0.860310
v 0.505677 0.117539 -0.696005
v 0.696005 0.117539 -0.505677
v 0.818203 0.117539 -0.265850
v 0.860310 0.117539 0.000000
v 0.818203 0.117539 0.265850
v 0.696005 0.117539 0.505677
v 0.505677 0.117539 0.696005
v 0.265850 0.117539 0.818203
v -0.000000 0.117539 0.860310
v -0.265851 0.117539 0.818203
v -0.505678 0.117539 0.696005
v -0.696006 0.117539 0.505677
v -0.818203 0.117539 0.265850
v -0.860310 0.117539 -0.000001
v -0.818203 0.117539 -0.265851
v -0.696005 0.117539 -0.505678
v -0.505677 0.117539 -0.696006
v -0.265849 0.117539 -0.818204
v 0.000000 -0.217144 -1.000000
v -0.000000 0.238753 -0.882188
v -0.000000 0.217144 -0.860310
v 0.309017 -0.217144 -0.951057
v 0.265850 0.217144 -0.818203
v 0.272611 0.238753 -0.839011
v 0.587785 -0.217144 -0.809017
v 0.505677 0.217144 -0.696005
v 0.518537 0.238753 -0.713705
v 0.809017 -0.217144 -0.587785
v 0.696005 0.217144 -0.505677
v 0.713705 0.238753 -0.518537
v 0.951057 -0.217144 -0.309017
v 0.818203 0.217144 -0.265850
v 0.839011 0.238753 -0.272611
v 1.000000 -0.217144 0.000000
v 0.860310 0.217144 0.000000
v 0.882188 0.238753 0.000000
v 0.951056 -0.217144 0.309017
v 0.818203 0.217144 0.265850
v 0.839011 0.238753 0.272611
v 0.809017 -0.217144 0.587785
v 0.696005 0.217144 0.505677
v 0.713705 0.238753 0.518537
v 0.587785 -0.217144 0.809017
v 0.505677 0.217144 0.696005
v 0.518537 0.238753 0.713705
v 0.309017 -0.217144 0.951057
v 0.265850 0.217144 0.818203
v 0.272611 0.238753 0.839011
v -0.000000 -0.217144 1.000000
v -0.000000 0.217144 0.860310
v -0.000000 0.238753 0.882188
v -0.309017 -0.217144 0.951056
v -0.265851 0.217144 0.818203
v -0.272612 0.238753 0.839011
v -0.587786 -0.217144 0.809017
v -0.505678 0.217144 0.696005
v -0.518538 0.238753 0.713705
v -0.809017 -0.217144 0.587785
v -0.696006 0.217144 0.505677
v -0.713706 0.238753 0.518537
v -0.951057 -0.217144 0.309016
v -0.818203 0.217144 0.265850
v -0.839011 0.238753 0.272610
v -1.000000 -0.217144 -0.000001
v -0.860310 0.217144 -0.000001
v -0.882188 0.238753 -0.000001
v -0.951056 -0.217144 -0.309018
v -0.818203 0.217144 -0.265851
v -0.839011 0.238753 -0.272612
v -0.809016 -0.217144 -0.587786
v -0.696005 0.217144 -0.505678
v -0.713705 0.238753 -0.518538
v -0.587784 -0.217144 -0.809018
v -0.505677 0.217144 -0.696006
v -0.518536 0.238753 -0.713706
v -0.309016 -0.217144 -0.951057
v -0.265849 0.217144 -0.818204
v -0.272610 0.238753 -0.839011
v 0.302256 0.238753 -0.930249
v 0.309017 0.217144 -0.951057
v 0.000000 0.217144 -1.000000
v -0.000000 0.238753 -0.978122
v 0.574925 0.238753 -0.791317
v 0.587785 0.217144 -0.809017
v 0.791317 0.238753 -0.574925
v 0.809017 0.217144 -0.587785
v 0.930249 0.238753 -0.302256
v 0.951057 0.217144 -0.309017
v 0.978122 0.238753 0.000000
v 1.000000 0.217144 0.000000
v 0.930249 0.238753 0.302256
v 0.951056 0.217144 0.309017
v 0.791317 0.238753 0.574925
v 0.809017 0.217144 0.587785
v 0.574925 0.238753 0.791317
v 0.587785 0.217144 0.809017
v 0.302256 0.238753 0.930249
v 0.309017 0.217144 0.951057
v -0.000000 0.238753 0.978122
v -0.000000 0.217144 1.000000
v -0.302257 0.238753 0.930249
v -0.309017 0.217144 0.951056
v -0.574926 0.238753 0.791317
v -0.587786 0.217144 0.809017
v -0.791317 0.238753 0.574925
v -0.809017 0.217144 0.587785
v -0.930249 0.238753 0.302255
v -0.951057 0.217144 0.309016
v -0.978122 0.238753 -0.000001
v -1.000000 0.217144 -0.000001
v -0.930249 0.238753 -0.302257
v -0.951056 0.217144 -0.309018
v -0.791316 0.238753 -0.574926
v -0.809016 0.217144 -0.587786
v -0.574924 0.238753 -0.791318
v -0.587784 0.217144 -0.809018
v -0.302255 0.238753 -0.930249
v -0.309016 0.217144 -0.951057
v 0.302256 -0.238753 -0.930249
v -0.000000 -0.238753 -0.978122
v 0.574925 -0.238753 -0.791317
v 0.791317 -0.238753 -0.574925
v 0.930249 -0.238753 -0.302256
v 0.978122 -0.238753 0.000000
v 0.930249 -0.238753 0.302256
v 0.791317 -0.238753 0.574925
v 0.574925 -0.238753 0.791317
v 0.302256 -0.238753 0.930249
v -0.000000 -0.238753 0.978122
v -0.302257 -0.238753 0.930249
v -0.574926 -0.238753 0.791317
v -0.791317 -0.238753 0.574925
v -0.930249 -0.238753 0.302255
v -0.978122 -0.238753 -0.000001
v -0.930249 -0.238753 -0.302257
v -0.791316 -0.238753 -0.574926
v -0.574924 -0.238753 -0.791318
v -0.302255 -0.238753 -0.930249
v 0.265829 -0.131789 -0.818136
v -0.000000 -0.131789 -0.860239
v 0.505636 -0.131789 -0.695948
v 0.695948 -0.131789 -0.505636
v 0.818136 -0.131789 -0.265829
v 0.860239 -0.131789 0.000000
v 0.818136 -0.131789 0.265829
v 0.695948 -0.131789 0.505636
v 0.505636 -0.131789 0.695948
v 0.265828 -0.131789 0.818136
v -0.000000 -0.131789 0.860239
v -0.265829 -0.131789 0.818136
v -0.505637 -0.131789 0.695948
v -0.695949 -0.131789 0.505636
v -0.818137 -0.131789 0.265828
v -0.860239 -0.131789 -0.000001
v -0.818136 -0.131789 -0.265829
v -0.695948 -0.131789 -0.505637
v -0.505635 -0.131789 -0.695949
v -0.265827 -0.131789 -0.818137
v -0.000000 -0.216277 -0.860239
v -0.000000 -0.238753 -0.882996
v 0.272861 -0.238753 -0.839779
v 0.265829 -0.216277 -0.818136
v 0.519012 -0.238753 -0.714358
v 0.505636 -0.216277 -0.695948
v 0.714359 -0.238753 -0.519012
v 0.695948 -0.216277 -0.505636
v 0.839779 -0.238753 -0.272861
v 0.818136 -0.216277 -0.265829
v 0.882996 -0.238753 0.000000
v 0.860239 -0.216277 0.000000
v 0.839779 -0.238753 0.272861
v 0.818136 -0.216277 0.265829
v 0.714359 -0.238753 0.519012
v 0.695948 -0.216277 0.505636
v 0.519012 -0.238753 0.714359
v 0.505636 -0.216277 0.695948
v 0.272860 -0.238753 0.839779
v 0.265828 -0.216277 0.818136
v -0.000000 -0.238753 0.882996
v -0.000000 -0.216277 0.860239
v -0.272861 -0.238753 0.839779
v -0.265829 -0.216277 0.818136
v -0.519012 -0.238753 0.714358
v -0.505637 -0.216277 0.695948
v -0.714359 -0.238753 0.519011
v -0.695949 -0.216277 0.505636
v -0.839779 -0.238753 0.272860
v -0.818137 -0.216277 0.265828
v -0.882996 -0.238753 -0.000001
v -0.860239 -0.216277 -0.000001
v -0.839778 -0.238753 -0.272862
v -0.818136 -0.216277 -0.265829
v -0.714358 -0.238753 -0.519013
v -0.695948 -0.216277 -0.505637
v -0.519011 -0.238753 -0.714359
v -0.505635 -0.216277 -0.695949
v -0.272859 -0.238753 -0.839779
v -0.265827 -0.216277 -0.818137
vt 0.050000 0.522627
vt 0.050000 0.977373
vt -0.000000 0.977373
vt -0.000000 0.522627
vt 0.371363 0.417041
vt 0.313804 0.446369
vt 0.313804 0.446369
vt 0.371363 0.417041
vt 0.417041 0.371363
vt 0.417041 0.371363
vt 0.446369 0.313804
vt 0.446369 0.313804
vt 0.456474 0.250000
vt 0.456474 0.250000
vt 0.446369 0.186196
vt 0.446369 0.186196
vt 0.417041 0.128637
vt 0.417041 0.128637
vt 0.371363 0.082959
vt 0.371363 0.082959
vt 0.313804 0.053631
vt 0.313804 0.053631
vt 0.250000 0.043526
vt 0.250000 0.043526
vt 0.186196 0.053631
vt 0.186196 0.053631
vt 0.184573 0.048637
vt 0.125551 0.078711
vt 0.112018 0.060084
vt 0.177458 0.026740
vt 0.082959 0.128638
vt 0.128637 0.082959
vt 0.128637 0.082959
vt 0.082959 0.128638
vt 0.053631 0.186196
vt 0.053631 0.186196
vt 0.043526 0.250000
vt 0.043526 0.250000
vt 0.053631 0.313804
vt 0.053631 0.313804
vt 0.082959 0.371363
vt 0.082959 0.371363
vt 0.128638 0.417041
vt 0.128638 0.417041
vt 0.400000 0.522627
vt 0.400000 0.977373
vt 0.350000 0.977373
vt 0.350000 0.522627
vt 0.186196 0.446369
vt 0.186196 0.446369
vt 0.250000 0.456474
vt 0.250000 0.456474
vt 1.000000 0.522627
vt 1.000000 0.977373
vt 0.950000 0.977373
vt 0.950000 0.522627
vt 0.900000 0.522627
vt 0.900000 0.977373
vt 0.850000 0.977373
vt 0.850000 0.522627
vt 0.800000 0.977373
vt 0.800000 0.522627
vt 0.750000 0.977373
vt 0.750000 0.522627
vt 0.700000 0.977373
vt 0.700000 0.522627
vt 0.650000 0.977373
vt 0.650000 0.522627
vt 0.600000 0.977373
vt 0.600000 0.522627
vt 0.550000 0.977373
vt 0.550000 0.522627
vt 0.500000 0.977373
vt 0.500000 0.522627
vt 0.450000 0.977373
vt 0.450000 0.522627
vt 0.300000 0.977373
vt 0.300000 0.522627
vt 0.250000 0.977373
vt 0.250000 0.522627
vt 0.200000 0.977373
vt 0.200000 0.522627
vt 0.150000 0.977373
vt 0.150000 0.522627
vt 0.100000 0.977373
vt 0.100000 0.522627
vt 0.451363 0.315427
vt 0.461725 0.250000
vt 0.484749 0.250000
vt 0.473260 0.322541
vt 0.184574 0.451363
vt 0.250000 0.461725
vt 0.250000 0.484749
vt 0.177459 0.473260
vt 0.078711 0.125551
vt 0.060084 0.112018
vt 0.451363 0.184573
vt 0.473260 0.177458
vt 0.048637 0.184573
vt 0.026740 0.177459
vt 0.421289 0.125551
vt 0.439916 0.112018
vt 0.038275 0.250000
vt 0.015251 0.250000
vt 0.374449 0.078711
vt 0.387982 0.060084
vt 0.315427 0.451363
vt 0.322542 0.473260
vt 0.048638 0.315427
vt 0.026740 0.322542
vt 0.315427 0.048637
vt 0.322541 0.026740
vt 0.374449 0.421289
vt 0.387982 0.439916
vt 0.078711 0.374449
vt 0.060084 0.387982
vt 0.250000 0.038275
vt 0.250000 0.015251
vt 0.421289 0.374449
vt 0.439916 0.387982
vt 0.125551 0.421289
vt 0.112018 0.439916
vt 0.950547 0.500000
vt 0.999453 0.500000
vt 0.999453 1.000000
vt 0.950547 1.000000
vt 0.900547 0.500000
vt 0.949453 0.500000
vt 0.949453 1.000000
vt 0.900547 1.000000
vt 0.850547 0.500000
vt 0.899453 0.500000
vt 0.899453 1.000000
vt 0.850547 1.000000
vt 0.800547 0.500000
vt 0.849453 0.500000
vt 0.849453 1.000000
vt 0.800547 1.000000
vt 0.750547 0.500000
vt 0.799453 0.500000
vt 0.799453 1.000000
vt 0.750547 1.000000
vt 0.700547 0.500000
vt 0.749453 0.500000
vt 0.749453 1.000000
vt 0.700547 1.000000
vt 0.650547 0.500000
vt 0.699453 0.500000
vt 0.699453 1.000000
vt 0.650547 1.000000
vt 0.600547 0.500000
vt 0.649453 0.500000
vt 0.649453 1.000000
vt 0.600547 1.000000
vt 0.550547 0.500000
vt 0.599453 0.500000
vt 0.599453 1.000000
vt 0.550547 1.000000
vt 0.500547 0.500000
vt 0.549453 0.500000
vt 0.549453 1.000000
vt 0.500547 1.000000
vt 0.450547 0.500000
vt 0.499453 0.500000
vt 0.499453 1.000000
vt 0.450547 1.000000
vt 0.400547 0.500000
vt 0.449453 0.500000
vt 0.449453 1.000000
vt 0.400547 1.000000
vt 0.350547 0.500000
vt 0.399453 0.500000
vt 0.399453 1.000000
vt 0.350547 1.000000
vt 0.300547 0.500000
vt 0.349453 0.500000
vt 0.349453 1.000000
vt 0.300547 1.000000
vt 0.250547 0.500000
vt 0.299453 0.500000
vt 0.299453 1.000000
vt 0.250547 1.000000
vt 0.200547 0.500000
vt 0.249453 0.500000
vt 0.249453 1.000000
vt 0.200547 1.000000
vt 0.150547 0.500000
vt 0.199453 0.500000
vt 0.199453 1.000000
vt 0.150547 1.000000
vt 0.100547 0.500000
vt 0.149453 0.500000
vt 0.149453 1.000000
vt 0.100547 1.000000
vt 0.050547 0.500000
vt 0.099453 0.500000
vt 0.099453 1.000000
vt 0.050547 1.000000
vt 0.000547 0.500000
vt 0.049453 0.500000
vt 0.049453 1.000000
vt 0.000547 1.000000
vt 0.543543 0.250000
vt 0.553647 0.313799
vt 0.553647 0.313799
vt 0.543543 0.250000
vt 0.686201 0.446353
vt 0.750000 0.456457
vt 0.750000 0.456457
vt 0.686201 0.446353
vt 0.871352 0.417028
vt 0.917028 0.371353
vt 0.917028 0.371353
vt 0.871352 0.417028
vt 0.946353 0.313799
vt 0.946353 0.313799
vt 0.956458 0.250000
vt 0.956458 0.250000
vt 0.946353 0.186201
vt 0.946353 0.186201
vt 0.917028 0.128647
vt 0.917028 0.128647
vt 0.871353 0.082972
vt 0.871353 0.082972
vt 0.813799 0.053647
vt 0.813799 0.053647
vt 0.750000 0.043543
vt 0.750000 0.043543
vt 0.686201 0.053647
vt 0.686201 0.053647
vt 0.628647 0.082972
vt 0.628647 0.082972
vt 0.582972 0.128647
vt 0.582972 0.128647
vt 0.553647 0.186201
vt 0.553647 0.186201
vt 0.538081 0.250000
vt 0.548453 0.184514
vt 0.526740 0.177459
vt 0.515251 0.250000
vt 0.582973 0.371353
vt 0.582973 0.371353
vt 0.628648 0.417028
vt 0.628648 0.417028
vt 0.815486 0.451547
vt 0.750000 0.461919
vt 0.750000 0.484749
vt 0.822541 0.473260
vt 0.813799 0.446353
vt 0.874563 0.078554
vt 0.921446 0.125437
vt 0.939916 0.112018
vt 0.887982 0.060084
vt 0.684514 0.451547
vt 0.677459 0.473260
vt 0.548453 0.315487
vt 0.526740 0.322542
vt 0.815486 0.048453
vt 0.822541 0.026740
vt 0.874563 0.421446
vt 0.887982 0.439916
vt 0.578554 0.374563
vt 0.560084 0.387982
vt 0.750000 0.038081
vt 0.750000 0.015251
vt 0.921446 0.374563
vt 0.939916 0.387982
vt 0.625437 0.421446
vt 0.612018 0.439916
vt 0.684513 0.048453
vt 0.677458 0.026740
vt 0.951547 0.315487
vt 0.973260 0.322541
vt 0.625437 0.078554
vt 0.612018 0.060084
vt 0.961919 0.250000
vt 0.984749 0.250000
vt 0.813799 0.446353
vt 0.578554 0.125437
vt 0.560084 0.112018
vt 0.951547 0.184513
vt 0.973260 0.177458
vn -0.1564 0.0000 -0.9877
vn -0.4540 0.0000 0.8910
vn -0.7071 0.0000 0.7071
vn -0.8910 0.0000 0.4540
vn -0.9877 0.0000 0.1564
vn -0.9877 0.0000 -0.1564
vn -0.8910 0.0000 -0.4540
vn -0.7071 0.0000 -0.7071
vn -0.4540 0.0000 -0.8910
vn 0.1564 0.0000 -0.9877
vn 0.0000 1.0000 0.0000
vn 0.7071 0.0000 -0.7071
vn 0.8910 0.0000 -0.4540
vn 0.9877 0.0000 -0.1564
vn 0.9877 0.0000 0.1564
vn 0.8910 0.0000 0.4540
vn 0.7071 0.0000 0.7071
vn 0.4540 0.0000 0.8910
vn -0.1564 0.0000 0.9877
vn 0.1564 0.0000 0.9877
vn 0.4540 0.0000 -0.8910
vn 0.1106 -0.7071 -0.6984
vn 0.1106 0.7071 -0.6984
vn 0.3210 -0.7071 -0.6300
vn 0.3210 0.7071 -0.6300
vn 0.5000 -0.7071 -0.5000
vn 0.5000 0.7071 -0.5000
vn 0.6300 -0.7071 -0.3210
vn 0.6300 0.7071 -0.3210
vn 0.6984 -0.7071 -0.1106
vn 0.6984 0.7071 -0.1106
vn 0.6984 -0.7071 0.1106
vn 0.6984 0.7071 0.1106
vn 0.6300 -0.7071 0.3210
vn 0.6300 0.7071 0.3210
vn 0.5000 -0.7071 0.5000
vn 0.5000 0.7071 0.5000
vn 0.3210 -0.7071 0.6300
vn 0.3210 0.7071 0.6300
vn 0.1106 -0.7071 0.6984
vn 0.1106 0.7071 0.6984
vn -0.1106 -0.7071 0.6984
vn -0.1106 0.7071 0.6984
vn -0.3210 -0.7071 0.6300
vn -0.3210 0.7071 0.6300
vn -0.5000 -0.7071 0.5000
vn -0.5000 0.7071 0.5000
vn -0.6300 -0.7071 0.3210
vn -0.6300 0.7071 0.3210
vn -0.6984 -0.7071 0.1106
vn -0.6984 0.7071 0.1106
vn -0.6984 -0.7071 -0.1106
vn -0.6984 0.7071 -0.1106
vn -0.6300 -0.7071 -0.3210
vn -0.6300 0.7071 -0.3210
vn -0.5000 -0.7071 -0.5000
vn -0.5000 0.7071 -0.5000
vn -0.3210 -0.7071 -0.6300
vn -0.3210 0.7071 -0.6300
vn -0.1106 -0.7071 -0.6984
vn -0.1106 0.7071 -0.6984
vn 0.0000 -1.0000 0.0000
g Cylinder_Cylinder_Material.001
usemtl Material.001
s off
f 78/1/1 120/2/1 83/3/1 21/4/1
f 28/5/2 25/6/2 1/7/2 3/8/2
f 31/9/3 28/5/3 3/8/3 4/10/3
f 34/11/4 31/9/4 4/10/4 5/12/4
f 37/13/5 34/11/5 5/12/5 6/14/5
f 40/15/6 37/13/6 6/14/6 7/16/6
f 43/17/7 40/15/7 7/16/7 8/18/7
f 46/19/8 43/17/8 8/18/8 9/20/8
f 49/21/9 46/19/9 9/20/9 10/22/9
f 52/23/1 49/21/1 10/22/1 11/24/1
f 55/25/10 52/23/10 11/24/10 12/26/10
f 56/27/11 59/28/11 105/29/11 103/30/11
f 61/31/12 58/32/12 13/33/12 14/34/12
f 64/35/13 61/31/13 14/34/13 15/36/13
f 67/37/14 64/35/14 15/36/14 16/38/14
f 70/39/15 67/37/15 16/38/15 17/40/15
f 73/41/16 70/39/16 17/40/16 18/42/16
f 76/43/17 73/41/17 18/42/17 19/44/17
f 57/45/3 106/46/3 108/47/3 60/48/3
f 79/49/18 76/43/18 19/44/18 20/50/18
f 25/6/19 23/51/19 2/52/19 1/7/19
f 21/53/10 83/54/10 82/55/10 24/56/10
f 23/51/20 79/49/20 20/50/20 2/52/20
f 27/57/12 86/58/12 88/59/12 30/60/12
f 30/60/13 88/59/13 90/61/13 33/62/13
f 33/62/14 90/61/14 92/63/14 36/64/14
f 36/64/15 92/63/15 94/65/15 39/66/15
f 39/66/16 94/65/16 96/67/16 42/68/16
f 42/68/17 96/67/17 98/69/17 45/70/17
f 45/70/18 98/69/18 100/71/18 48/72/18
f 48/72/20 100/71/20 102/73/20 51/74/20
f 51/74/19 102/73/19 104/75/19 54/76/19
f 54/76/2 104/75/2 106/46/2 57/45/2
f 58/32/21 55/25/21 12/26/21 13/33/21
f 60/48/4 108/47/4 110/77/4 63/78/4
f 63/78/5 110/77/5 112/79/5 66/80/5
f 66/80/6 112/79/6 114/81/6 69/82/6
f 69/82/7 114/81/7 116/83/7 72/84/7
f 72/84/8 116/83/8 118/85/8 75/86/8
f 75/86/9 118/85/9 120/2/9 78/1/9
f 24/56/21 82/55/21 86/58/21 27/57/21
f 1/7/11 2/52/11 20/50/11 19/44/11 18/42/11 17/40/11 16/38/11 15/36/11 14/34/11 13/33/11 12/26/11 11/24/11 10/22/11 9/20/11 8/18/11 7/16/11 6/14/11 5/12/11 4/10/11 3/8/11
f 35/87/11 38/88/11 91/89/11 89/90/11
f 80/91/11 22/92/11 84/93/11 119/94/11
f 59/28/11 62/95/11 107/96/11 105/29/11
f 38/88/11 41/97/11 93/98/11 91/89/11
f 62/95/11 65/99/11 109/100/11 107/96/11
f 41/97/11 44/101/11 95/102/11 93/98/11
f 65/99/11 68/103/11 111/104/11 109/100/11
f 44/101/11 47/105/11 97/106/11 95/102/11
f 22/92/11 26/107/11 81/108/11 84/93/11
f 68/103/11 71/109/11 113/110/11 111/104/11
f 47/105/11 50/111/11 99/112/11 97/106/11
f 26/107/11 29/113/11 85/114/11 81/108/11
f 71/109/11 74/115/11 115/116/11 113/110/11
f 50/111/11 53/117/11 101/118/11 99/112/11
f 29/113/11 32/119/11 87/120/11 85/114/11
f 74/115/11 77/121/11 117/122/11 115/116/11
f 53/117/11 56/27/11 103/30/11 101/118/11
f 32/119/11 35/87/11 89/90/11 87/120/11
f 77/121/11 80/91/11 119/94/11 117/122/11
f 21/53/22 24/56/22 121/123/22 122/124/22
f 82/55/23 83/54/23 84/125/23 81/126/23
f 24/56/24 27/57/24 123/127/24 121/128/24
f 86/58/25 82/55/25 81/129/25 85/130/25
f 27/57/26 30/60/26 124/131/26 123/132/26
f 88/59/27 86/58/27 85/133/27 87/134/27
f 30/60/28 33/62/28 125/135/28 124/136/28
f 90/61/29 88/59/29 87/137/29 89/138/29
f 33/62/30 36/64/30 126/139/30 125/140/30
f 92/63/31 90/61/31 89/141/31 91/142/31
f 36/64/32 39/66/32 127/143/32 126/144/32
f 94/65/33 92/63/33 91/145/33 93/146/33
f 39/66/34 42/68/34 128/147/34 127/148/34
f 96/67/35 94/65/35 93/149/35 95/150/35
f 42/68/36 45/70/36 129/151/36 128/152/36
f 98/69/37 96/67/37 95/153/37 97/154/37
f 45/70/38 48/72/38 130/155/38 129/156/38
f 100/71/39 98/69/39 97/157/39 99/158/39
f 48/72/40 51/74/40 131/159/40 130/160/40
f 102/73/41 100/71/41 99/161/41 101/162/41
f 51/74/42 54/76/42 132/163/42 131/164/42
f 104/75/43 102/73/43 101/165/43 103/166/43
f 54/76/44 57/45/44 133/167/44 132/168/44
f 106/46/45 104/75/45 103/169/45 105/170/45
f 57/45/46 60/48/46 134/171/46 133/172/46
f 108/47/47 106/46/47 105/173/47 107/174/47
f 60/48/48 63/78/48 135/175/48 134/176/48
f 110/77/49 108/47/49 107/177/49 109/178/49
f 63/78/50 66/80/50 136/179/50 135/180/50
f 112/79/51 110/77/51 109/181/51 111/182/51
f 66/80/52 69/82/52 137/183/52 136/184/52
f 114/81/53 112/79/53 111/185/53 113/186/53
f 69/82/54 72/84/54 138/187/54 137/188/54
f 116/83/55 114/81/55 113/189/55 115/190/55
f 72/84/56 75/86/56 139/191/56 138/192/56
f 118/85/57 116/83/57 115/193/57 117/194/57
f 75/86/58 78/1/58 140/195/58 139/196/58
f 120/2/59 118/85/59 117/197/59 119/198/59
f 78/1/60 21/4/60 122/199/60 140/200/60
f 83/3/61 120/2/61 119/201/61 84/202/61
f 26/107/43 22/92/43 23/51/43 25/6/43
f 29/113/45 26/107/45 25/6/45 28/5/45
f 32/119/47 29/113/47 28/5/47 31/9/47
f 35/87/49 32/119/49 31/9/49 34/11/49
f 38/88/51 35/87/51 34/11/51 37/13/51
f 41/97/53 38/88/53 37/13/53 40/15/53
f 44/101/55 41/97/55 40/15/55 43/17/55
f 47/105/57 44/101/57 43/17/57 46/19/57
f 50/111/59 47/105/59 46/19/59 49/21/59
f 53/117/61 50/111/61 49/21/61 52/23/61
f 56/27/23 53/117/23 52/23/23 55/25/23
f 59/28/25 56/27/25 55/25/25 58/32/25
f 62/95/27 59/28/27 58/32/27 61/31/27
f 65/99/29 62/95/29 61/31/29 64/35/29
f 68/103/31 65/99/31 64/35/31 67/37/31
f 71/109/33 68/103/33 67/37/33 70/39/33
f 74/115/35 71/109/35 70/39/35 73/41/35
f 77/121/37 74/115/37 73/41/37 76/43/37
f 80/91/39 77/121/39 76/43/39 79/49/39
f 22/92/41 80/91/41 79/49/41 23/51/41
f 192/203/15 194/204/15 157/205/15 156/206/15
f 200/207/20 161/208/20 142/209/20 160/210/20
f 166/211/3 168/212/3 144/213/3 143/214/3
f 168/212/4 170/215/4 145/216/4 144/213/4
f 170/215/5 172/217/5 146/218/5 145/216/5
f 172/217/6 174/219/6 147/220/6 146/218/6
f 174/219/7 176/221/7 148/222/7 147/220/7
f 176/221/8 178/223/8 149/224/8 148/222/8
f 178/223/9 180/225/9 150/226/9 149/224/9
f 180/225/1 182/227/1 151/228/1 150/226/1
f 182/227/10 184/229/10 152/230/10 151/228/10
f 184/229/21 186/231/21 153/232/21 152/230/21
f 186/231/12 188/233/12 154/234/12 153/232/12
f 188/233/13 190/235/13 155/236/13 154/234/13
f 191/237/62 189/238/62 135/239/62 136/240/62
f 190/235/14 192/203/14 156/206/14 155/236/14
f 194/204/16 196/241/16 158/242/16 157/205/16
f 196/241/17 198/243/17 159/244/17 158/242/17
f 198/243/18 200/207/18 160/210/18 159/244/18
f 163/245/62 162/246/62 122/247/62 121/248/62
f 142/209/62 141/249/62 143/214/62 144/213/62 145/216/62 146/218/62 147/220/62 148/222/62 149/224/62 150/226/62 151/228/62 152/230/62 153/232/62 154/234/62 155/236/62 156/206/62 157/205/62 158/242/62 159/244/62 160/210/62
f 177/250/62 175/251/62 128/252/62 129/253/62
f 162/246/62 199/254/62 140/255/62 122/247/62
f 193/256/62 191/237/62 136/240/62 137/257/62
f 179/258/62 177/250/62 129/253/62 130/259/62
f 165/260/62 163/245/62 121/248/62 123/261/62
f 195/262/62 193/256/62 137/257/62 138/263/62
f 181/264/62 179/258/62 130/259/62 131/265/62
f 167/266/62 165/260/62 123/261/62 124/267/62
f 197/268/62 195/262/62 138/263/62 139/269/62
f 183/270/62 181/264/62 131/265/62 132/271/62
f 169/272/62 167/266/62 124/267/62 125/273/62
f 199/254/62 197/268/62 139/269/62 140/255/62
f 185/274/62 183/270/62 132/271/62 133/275/62
f 171/276/62 169/272/62 125/273/62 126/277/62
f 164/278/2 166/211/2 143/214/2 141/249/2
f 187/279/62 185/274/62 133/275/62 134/280/62
f 173/281/62 171/276/62 126/277/62 127/282/62
f 189/238/62 187/279/62 134/280/62 135/239/62
f 175/251/62 173/281/62 127/282/62 128/252/62
f 164/278/42 161/208/42 162/246/42 163/245/42
f 166/211/44 164/278/44 163/245/44 165/260/44
f 168/212/46 166/211/46 165/260/46 167/266/46
f 170/215/48 168/212/48 167/266/48 169/272/48
f 172/217/50 170/215/50 169/272/50 171/276/50
f 174/219/52 172/217/52 171/276/52 173/281/52
f 176/221/54 174/219/54 173/281/54 175/251/54
f 178/223/56 176/221/56 175/251/56 177/250/56
f 180/225/58 178/223/58 177/250/58 179/258/58
f 182/227/60 180/225/60 179/258/60 181/264/60
f 184/229/22 182/227/22 181/264/22 183/270/22
f 186/231/24 184/229/24 183/270/24 185/274/24
f 188/233/26 186/231/26 185/274/26 187/279/26
f 190/235/28 188/233/28 187/279/28 189/238/28
f 192/203/30 190/235/30 189/238/30 191/237/30
f 194/204/32 192/203/32 191/237/32 193/256/32
f 196/241/34 194/204/34 193/256/34 195/262/34
f 198/243/36 196/241/36 195/262/36 197/268/36
f 200/207/38 198/243/38 197/268/38 199/254/38
f 161/208/40 200/207/40 199/254/40 162/246/40
f 161/208/19 164/278/19 141/249/19 142/209/19
